<?xml version="1.0" encoding="UTF-8"?>
<svg id="Layer_1" data-name="Layer 1" xmlns="http://www.w3.org/2000/svg" viewBox="0 0 377.92 370.89">
  <defs>
    <style>
      .cls-1 {
        fill: #5291cd;
      }

      .cls-2 {
        fill: #60873b;
      }

      .cls-3 {
        fill: #fff;
      }
    </style>
  </defs>
  <g>
    <path class="cls-3" d="M253.95,30.51C156.38-.53,52.11,53.4,21.07,150.97c-12.7,39.91-11.17,80.93,1.74,117.61,23.37,30.44,55.95,54.31,95.29,66.83,102.44,32.59,211.91-24.03,244.51-126.48,6.97-21.92,9.85-44.16,9.08-65.9-19.13-51.77-61.07-94.49-117.74-112.52Z"/>
    <g>
      <path class="cls-1" d="M248.69,8.78C151.12-22.27,46.85,31.67,15.81,129.24c-12.7,39.91-11.17,80.93,1.74,117.61,23.37,30.44,55.95,54.31,95.29,66.83,102.44,32.59,211.91-24.03,244.51-126.48,6.97-21.92,9.85-44.16,9.08-65.9-19.13-51.77-61.07-94.49-117.74-112.52Z"/>
      <path class="cls-2" d="M143.25,205.51c-39.35-12.52-102.33,71.78-125.7,41.34,18.65,53,61.06,96.92,118.73,115.26,97.57,31.04,201.83-22.89,232.88-120.46,13.01-40.91,11.09-82.99-2.72-120.35.77,21.74,4.11,39.96-2.86,61.88-32.59,102.44-117.87,54.93-220.32,22.34Z"/>
    </g>
    <path class="cls-3" d="M355.32,167.42c-34.43,84.46-151.23,150.39-254.03,120.41-57.82-16.86-76.48-39.78-94.13-84.7-.74-1.89-1.44-3.79-2.09-5.71-.27,17.37-9.07,12.58-2.83,28.46,17.66,44.91,35.67,66.29,94.21,80.45,99.06,23.96,229.32-25.81,263.75-110.27,13.22-32.44,15.79-49.54,5.68-79.18-.26,16.62-3.66,33.65-10.55,50.53Z"/>
    <rect class="cls-3" x="169.45" y="234.6" width="42.3" height="63.22"/>
    <rect class="cls-3" x="223.26" y="244.35" width="19.83" height="45.19"/>
  </g>
  <path class="cls-3" d="M183.74,100.36c5.74-5.4,10.21-10.53,13.41-15.41,3.21-4.87,4.81-8.98,4.81-12.33,0-5.22-1.75-9.66-5.26-13.33-3.51-3.67-7.83-5.5-12.96-5.5s-9.45,1.83-12.96,5.5c-3.51,3.67-5.26,8.11-5.26,13.33,0,3.35,1.6,7.46,4.81,12.33,3.21,4.87,7.68,10.01,13.41,15.41ZM183.74,108.46c-8.17-6.95-14.26-13.4-18.27-19.33s-6.02-11.44-6.02-16.5c0-6.88,2.34-12.75,7.03-17.61s10.44-7.29,17.26-7.29,12.57,2.43,17.26,7.29,7.03,10.73,7.03,17.61c0,5.06-2.01,10.56-6.02,16.5-4.02,5.94-10.11,12.38-18.27,19.33ZM183.76,77.08c1.41,0,2.6-.49,3.58-1.48.98-.99,1.47-2.18,1.47-3.59s-.49-2.6-1.48-3.58c-.99-.98-2.18-1.47-3.59-1.47s-2.6.49-3.58,1.48-1.47,2.18-1.47,3.59.49,2.6,1.48,3.58,2.18,1.47,3.59,1.47ZM168.76,40.74l-4.25-4.25c2.56-2.56,5.51-4.54,8.84-5.92,3.33-1.38,6.82-2.08,10.48-2.08s7.15.69,10.49,2.08c3.34,1.38,6.29,3.36,8.86,5.92l-4.25,4.25c-1.96-1.96-4.24-3.48-6.86-4.55-2.62-1.08-5.36-1.62-8.22-1.62s-5.61.54-8.22,1.62c-2.62,1.08-4.9,2.6-6.86,4.55ZM157.43,29.3l-4.35-4.15c4.12-4.05,8.82-7.2,14.1-9.46,5.29-2.26,10.84-3.39,16.65-3.39s11.39,1.13,16.72,3.39,10.05,5.42,14.17,9.46l-4.35,4.25c-3.58-3.58-7.65-6.31-12.21-8.2-4.57-1.89-9.34-2.83-14.32-2.83s-9.75.93-14.31,2.78c-4.55,1.86-8.59,4.57-12.1,8.15Z"/>
  <g>
    <path class="cls-3" d="M49.95,234.52c-1.88-10.68-3.55-19.6-5.01-26.74-1.46-7.15-3.53-16.6-6.21-28.37s-4.52-19.55-5.53-23.34l-1.46-5.31c8.26-2.47,18.23-5.52,29.92-9.15,10.78-3.35,20.28-6.33,28.5-8.97l.42,2.02c.09.49.47,2.27,1.13,5.33l1.43,6.67c.3,1.43.65,2.87,1.03,4.32-6.82,1.77-12.52,3.36-17.09,4.78-5.03,1.56-8.42,2.62-10.18,3.19-1.76.57-4.48,1.51-8.17,2.83l3.05,14.12c4.15-1.16,8.97-2.59,14.45-4.29,1.96-.61,7.12-2.36,15.49-5.26,1.02,5.27,2.32,11.53,3.9,18.77-6.06,1.79-10.71,3.19-13.95,4.2-4.81,1.49-10.17,3.31-16.06,5.44l3.27,14.9,6.02-1.87c1.78-.55,5.44-1.75,10.99-3.61l10.75-3.66c1.59-.54,4.24-1.53,7.93-2.98,1.16,6.1,2.45,12.38,3.86,18.85-8.54,2.56-17.89,5.42-28.04,8.57l-23.02,7.21-7.42,2.37Z"/>
    <path class="cls-3" d="M106.43,136.79c5.46-1.61,9.31-2.76,11.54-3.45,2.79-.87,6.5-2.06,11.11-3.58l5.26,26.21c.97,4.94,1.94,9.55,2.91,13.84.97,4.28,1.66,7.23,2.09,8.85.81,3.07,1.68,5.57,2.61,7.51.93,1.94,2.09,3.47,3.48,4.59,1.39,1.12,3.08,1.76,5.07,1.93s3.96-.05,5.91-.65c1.67-.52,3.17-1.27,4.5-2.25,1.04-.79,1.91-1.71,2.61-2.76.61-.97,1.09-2.03,1.42-3.17.43-1.38.69-3.02.79-4.92.13-1.81-.02-4.05-.42-6.73-.39-2.74-1.56-8.88-3.52-18.41-1.66-8.12-3.24-15.53-4.76-22.24-1.5-6.5-2.16-9.78-1.98-9.84,5.27-1.63,9.42-2.92,12.46-3.87l10.63-3.3,8.84,43.76c.18.82.34,1.49.48,2.01,2.08,8.44,3.21,14.5,3.37,18.18.16,3.68-.29,7.07-1.36,10.15-1.07,3.08-3.01,6.17-5.83,9.24-2.81,3.08-6.24,5.7-10.27,7.87-4.04,2.17-8.24,3.93-12.6,5.28-3.91,1.21-7.77,2.06-11.57,2.54-3.52.4-6.79.39-9.81,0-3.01-.4-5.74-1.11-8.16-2.15-2.22-.97-4.03-2.1-5.43-3.39-1.4-1.29-2.67-2.96-3.82-5.01-1.29-2.31-2.32-4.89-3.07-7.76-.26-.97-.61-2.44-1.06-4.42-.45-1.98-1.04-4.84-1.76-8.59l-1.88-9.9c-.5-2.6-1.29-6.39-2.39-11.38l-5.39-24.2Z"/>
    <path class="cls-3" d="M238.94,141.21c4.8-1.4,9.37-2.77,13.7-4.12,7.4-2.3,13.18-4.13,17.35-5.51,1.01,5.67,2.62,13.64,4.84,23.91,2.21,10.27,3.95,18.01,5.21,23.21-3.79,2.09-6.95,3.74-9.49,4.94-2.53,1.2-5.61,2.53-9.23,3.98-3.62,1.45-6.88,2.62-9.78,3.52-4.75,1.47-9.53,2.47-14.33,3-4.81.53-9.28.37-13.42-.49-4.14-.86-7.86-2.61-11.16-5.25-3.31-2.64-6.23-6.08-8.77-10.32-2.54-4.23-4.46-8.83-5.78-13.8-2.17-8.19-2.42-16.34-.76-24.46,1.67-8.11,5.26-15.25,10.79-21.39,5.53-6.15,13.53-10.85,24-14.09,7.64-2.37,16.39-3.93,26.24-4.67,1.56,5.89,3.52,12.38,5.89,19.46-2.77-.19-5-.29-6.68-.32-1.69-.02-3.63.08-5.81.3-2.19.22-4.24.52-6.17.9-1.92.38-3.61.79-5.08,1.25-3.84,1.19-7.3,2.95-10.39,5.28-3.08,2.33-5.5,5.2-7.27,8.61-1.76,3.41-2.77,7.14-3.01,11.19s.17,8.11,1.25,12.19c1.1,4.16,2.78,7.64,5.04,10.46,2.26,2.82,5.13,4.6,8.61,5.35s7.1.55,10.83-.61c3.11-.96,6.37-2.54,9.79-4.74l-2.88-13.32c-2.31.58-3.67.94-4.09,1.07l-5.55,1.79-1.61-7.56c-.18-.82-.43-1.99-.77-3.53-.33-1.54-.84-3.61-1.54-6.24Z"/>
    <path class="cls-3" d="M309.04,109.91c4.33-1.34,8.69-1.87,13.1-1.57,4.4.29,8.37,1.46,11.89,3.48,3.52,2.03,6.45,4.77,8.78,8.22,2.33,3.45,4.08,7.39,5.26,11.83,1.14,4.32,1.65,8.61,1.51,12.86-.14,4.26-1.15,8.52-3.04,12.8-1.89,4.28-4.77,7.93-8.63,10.96-3.86,3.03-8.2,5.3-13.02,6.79-4.43,1.37-8.89,1.95-13.37,1.72-4.48-.23-8.47-1.35-11.97-3.36-3.5-2.01-6.47-4.81-8.9-8.37-2.44-3.57-4.24-7.55-5.4-11.95-1.16-4.4-1.61-8.8-1.32-13.22.28-4.41,1.46-8.66,3.53-12.76,2.07-4.09,5.02-7.66,8.86-10.71,3.84-3.05,8.08-5.29,12.72-6.73ZM313.39,127.81c-2.23.69-4.05,1.98-5.44,3.85-1.39,1.87-2.19,4.23-2.4,7.07-.21,2.84.08,5.77.88,8.8,1.18,4.44,3.04,7.54,5.58,9.31,2.54,1.77,5.27,2.2,8.16,1.3,2.2-.68,3.99-1.97,5.38-3.86,1.39-1.89,2.17-4.3,2.37-7.22.19-2.92-.12-5.89-.92-8.92-.66-2.5-1.61-4.65-2.84-6.45-1.23-1.8-2.8-3.06-4.71-3.78-1.91-.72-3.93-.75-6.06-.09Z"/>
  </g>
  <rect class="cls-3" x="148.99" y="255.05" width="25.43" height="45.19"/>
</svg>